<svg width="66" height="117" viewBox="0 0 66 117" fill="none" xmlns="http://www.w3.org/2000/svg">
<path d="M63.6847 109.015L36.3557 58.5187L63.6847 8.02257C64.0752 7.30122 64.2394 6.43189 64.2394 5.6238C64.2394 4.8157 64.0752 3.94637 63.6847 3.22503C63.3054 2.52408 62.6304 1.85534 61.6747 1.85534C60.719 1.85534 60.044 2.52408 59.6646 3.22503L33.0474 52.4059L6.43009 3.22503C6.05073 2.52408 5.37574 1.85534 4.42003 1.85534C3.46432 1.85534 2.78933 2.52408 2.40997 3.22503C2.01957 3.94637 1.85534 4.8157 1.85534 5.6238C1.85534 6.43189 2.01957 7.30122 2.40997 8.02257L29.7391 58.5187L2.40997 109.015C2.01957 109.736 1.85534 110.605 1.85534 111.414C1.85534 112.222 2.01957 113.091 2.40997 113.812C2.79419 114.522 3.47147 115.177 4.42003 115.177C5.36859 115.177 6.04586 114.522 6.43009 113.812L33.0474 64.6315L59.6646 113.812C60.0489 114.522 60.7261 115.177 61.6747 115.177C62.6233 115.177 63.3005 114.522 63.6847 113.812C64.0752 113.091 64.2394 112.222 64.2394 111.414C64.2394 110.605 64.0752 109.736 63.6847 109.015Z" fill="white" stroke="white" stroke-width="2.28932"/>
</svg>
