<svg width="66" height="117" viewBox="0 0 66 117" fill="none" xmlns="http://www.w3.org/2000/svg">
<path d="M60.2105 3.22107L37.7542 44.3263V21.4608C37.7542 20.3222 37.4231 19.0882 36.6505 18.3294L36.6506 18.3293L36.6411 18.3202C36.2209 17.9169 35.6458 17.6428 34.989 17.707C34.3469 17.7697 33.8382 18.135 33.4853 18.576C33.4846 18.5768 33.484 18.5776 33.4833 18.5785L22.3677 32.3561L6.45078 3.22107C6.06623 2.51717 5.38699 1.85534 4.43342 1.85534C3.47985 1.85534 2.8006 2.51717 2.41605 3.22107C2.02147 3.94334 1.85534 4.81416 1.85534 5.6238C1.85534 6.43343 2.02147 7.30425 2.41605 8.02653L18.3972 37.2793L16.4812 39.6516H5.29175C4.28223 39.6516 3.61952 40.3856 3.27582 41.0147C2.9085 41.6871 2.71653 42.5379 2.71653 43.4148V73.6121C2.71653 74.4891 2.9085 75.3398 3.27582 76.0122C3.61952 76.6413 4.28223 77.3753 5.29175 77.3753H16.4869L18.403 79.7477L2.42178 109C2.02719 109.723 1.86106 110.593 1.86106 111.403C1.86106 112.213 2.02719 113.084 2.42178 113.806C2.8112 114.519 3.49274 115.166 4.43914 115.166C5.38554 115.166 6.06709 114.519 6.4565 113.806L22.3734 84.6708L33.4859 98.4445C33.4873 98.4462 33.4886 98.448 33.49 98.4497C33.8878 98.95 34.4709 99.3293 35.1847 99.3293C35.7811 99.3293 36.2771 99.0543 36.6381 98.7149L36.6382 98.715L36.6468 98.7067C37.4329 97.9521 37.7599 96.6959 37.7599 95.5661V72.7111L60.2163 113.816C60.6057 114.529 61.2872 115.177 62.2336 115.177C63.18 115.177 63.8616 114.529 64.251 113.816C64.6456 113.094 64.8117 112.223 64.8117 111.414C64.8117 110.604 64.6456 109.733 64.251 109.011L64.2507 109.01L56.5024 94.8477C61.3304 84.9397 63.9448 72.4456 63.9448 59.2624C63.9448 45.7363 61.1855 32.9265 56.1183 22.9026L64.2453 8.02653C64.6399 7.30425 64.806 6.43343 64.806 5.6238C64.806 4.81416 64.6399 3.94334 64.2453 3.22107C63.8607 2.51717 63.1815 1.85534 62.2279 1.85534C61.2743 1.85534 60.5951 2.51717 60.2105 3.22107ZM44.2209 44.6801L46.6386 40.2545C48.9033 45.6813 50.1423 52.2762 50.1423 59.2624C50.1423 65.8785 49.025 72.1556 46.9815 77.4177L44.5586 72.9761C46.1558 68.9634 47.0128 64.2176 47.0184 59.2532V59.2519C47.0184 53.937 46.0429 48.8628 44.2209 44.6801ZM58.7944 59.2624C58.7944 70.1002 56.7822 80.3422 53.1088 88.6367L50.4174 83.71C53.5827 76.7933 55.2928 68.2505 55.2928 59.2624C55.2928 49.9331 53.456 41.0735 50.047 34.0157L52.7424 29.082C56.6469 37.5081 58.7944 48.061 58.7944 59.2624ZM25.6153 38.3006L32.6037 29.6365V51.0927L25.6153 38.3006ZM19.1693 70.7393C19.1691 70.7391 19.1689 70.7388 19.1687 70.7385C18.7887 70.2639 18.2085 69.8593 17.4744 69.8593H7.86697V47.1781H17.4687C18.2021 47.1781 18.7819 46.7743 19.1619 46.3002C19.1625 46.2995 19.163 46.2988 19.1636 46.2981L21.6449 43.2239L30.0007 58.5187L21.6456 73.8122L19.1693 70.7393ZM25.6153 78.7368L32.6037 65.9447V87.4008L25.6153 78.7368ZM37.7542 60.5307V56.5066L40.7013 51.1121C41.4537 53.5606 41.8623 56.3414 41.8623 59.2624C41.8623 61.7938 41.5533 64.2286 40.9781 66.4319L37.7542 60.5307Z" fill="white" stroke="white" stroke-width="2.28932"/>
</svg>
