<svg width="65" height="85" viewBox="0 0 65 85" fill="none" xmlns="http://www.w3.org/2000/svg">
<path d="M35.7964 2.48872L35.7964 2.48867L35.787 2.47955C35.367 2.07541 34.7915 1.80008 34.1334 1.86453C33.4904 1.9275 32.9816 2.2941 32.6291 2.73571C32.6284 2.73656 32.6277 2.7374 32.627 2.73825L15.6269 23.8678H4.43083C3.41977 23.8678 2.75721 24.6044 2.41413 25.234C2.04715 25.9074 1.85534 26.7595 1.85534 27.638V57.9158C1.85534 58.7943 2.04715 59.6464 2.41413 60.3198C2.75721 60.9494 3.41977 61.686 4.43083 61.686H15.6269L32.6239 82.8115C32.6251 82.8131 32.6264 82.8147 32.6277 82.8163C33.025 83.3175 33.6085 83.6986 34.3237 83.6986C34.9211 83.6986 35.4174 83.4225 35.7783 83.0825L35.7783 83.0825L35.787 83.0742C36.5725 82.3184 36.8991 81.0602 36.8991 79.9284V5.62535C36.8991 4.48477 36.5684 3.24888 35.7964 2.48872ZM54.2509 81.9132L54.2514 81.9123C59.9744 71.6035 63.0947 57.9703 63.0947 43.5278C63.0947 29.0855 59.9745 15.4417 54.2571 5.14326L54.2567 5.14248C53.8649 4.43812 53.1756 3.78502 52.2185 3.80217C51.2718 3.81914 50.6019 4.48425 50.2228 5.18695L50.2206 5.19122C49.8326 5.91784 49.6701 6.7905 49.6736 7.60201C49.677 8.41253 49.8466 9.28437 50.2471 10.0045C55.1921 18.9042 57.9495 30.812 57.9495 43.5278C57.9495 56.2437 55.192 68.1518 50.2469 77.0515L50.2448 77.0554C49.8495 77.7732 49.68 78.6425 49.6757 79.4523C49.6714 80.2628 49.8319 81.1364 50.2206 81.8643L50.2206 81.8644C50.601 82.5766 51.2791 83.2575 52.2491 83.2575C53.195 83.2575 53.8674 82.6026 54.2509 81.9132ZM48.1327 70.8964L48.1331 70.8957C52.2194 63.5378 54.4411 53.8113 54.4411 43.5278C54.4411 33.2442 52.2194 23.518 48.1392 16.1605L48.1385 16.1593C47.7487 15.4585 47.0617 14.8012 46.1044 14.815C45.1517 14.8286 44.4805 15.4998 44.1024 16.208C43.7144 16.9346 43.5519 17.8073 43.5554 18.6188C43.5588 19.4293 43.7284 20.3012 44.1289 21.0213C47.4426 26.9801 49.2958 34.9705 49.2958 43.5278C49.2958 52.0845 47.4371 60.0755 44.1285 66.035L44.1265 66.0385C43.7313 66.7564 43.5618 67.6257 43.5575 68.4355C43.5532 69.246 43.7136 70.1196 44.1024 70.8475L44.1024 70.8476C44.4827 71.5598 45.1609 72.2407 46.1308 72.2407C47.0767 72.2407 47.7492 71.5858 48.1327 70.8964ZM38.2417 60.3033L38.2417 60.3034C38.6221 61.0156 39.3002 61.6965 40.2702 61.6965C41.2161 61.6965 41.8885 61.0416 42.272 60.3522C44.8022 55.8081 46.1595 49.8304 46.1595 43.5278C46.1595 37.2243 44.8019 31.2481 42.2792 26.6851L42.2778 26.6825C41.888 25.9817 41.201 25.3245 40.2437 25.3382C39.2911 25.3518 38.6198 26.023 38.2417 26.7312C37.8537 27.4579 37.6912 28.3305 37.6947 29.142C37.6981 29.9523 37.8676 30.8238 38.2678 31.5438C40.0139 34.6887 41.0085 38.9304 41.0085 43.5173C41.0085 48.1042 40.0139 52.3459 38.2678 55.4908L38.2659 55.4943C37.8707 56.2121 37.7012 57.0815 37.6968 57.8913C37.6925 58.7018 37.853 59.5753 38.2417 60.3033ZM31.7482 71.7439L18.306 55.0384C18.3053 55.0375 18.3047 55.0367 18.304 55.0359C17.9244 54.5613 17.3446 54.1561 16.61 54.1561H7.00631V31.4082H16.61C17.3447 31.4082 17.9247 31.0028 18.3042 30.5281C18.3048 30.5274 18.3054 30.5266 18.306 30.5259L31.7482 13.8203V71.7439Z" fill="white" stroke="white" stroke-width="2.28932"/>
</svg>
